<mxfile host="app.diagrams.net" agent="Mozilla/5.0 (Macintosh; Intel Mac OS X 10_15_7) AppleWebKit/605.1.15 (KHTML, like Gecko) Version/18.4 Safari/605.1.15" version="28.2.3">
  <diagram name="Trang-1" id="YthBgYOnbqRF2MqmvJ9D">
    <mxGraphModel dx="1351" dy="1731" grid="0" gridSize="10" guides="1" tooltips="1" connect="1" arrows="1" fold="1" page="0" pageScale="1" pageWidth="827" pageHeight="1169" math="0" shadow="0">
      <root>
        <mxCell id="0" />
        <mxCell id="1" parent="0" />
        <mxCell id="lagsqbO43xkKmdAP9FLH-4" value="" style="rounded=0;whiteSpace=wrap;html=1;strokeColor=light-dark(#005493, #ededed);fillColor=light-dark(#005493, #ededed);" vertex="1" parent="1">
          <mxGeometry x="306.99" y="-578" width="198.01" height="146" as="geometry" />
        </mxCell>
        <mxCell id="lagsqbO43xkKmdAP9FLH-5" value="" style="shape=actor;whiteSpace=wrap;html=1;strokeColor=light-dark(#ffffff, #ededed);fillColor=default;fontColor=#333333;gradientColor=none;recursiveResize=1;expand=1;" vertex="1" parent="1">
          <mxGeometry x="382.77000000000004" y="-570" width="45.45" height="51" as="geometry" />
        </mxCell>
        <mxCell id="lagsqbO43xkKmdAP9FLH-6" value="&lt;font style=&quot;font-size: 14px; color: light-dark(rgb(255, 255, 255), rgb(237, 237, 237));&quot;&gt;&lt;b&gt;Member&lt;/b&gt;&lt;/font&gt;" style="text;html=1;align=center;verticalAlign=middle;resizable=0;points=[];autosize=1;strokeColor=none;fillColor=none;" vertex="1" parent="1">
          <mxGeometry x="369.99" y="-519" width="72" height="28" as="geometry" />
        </mxCell>
        <mxCell id="lagsqbO43xkKmdAP9FLH-7" value="&lt;span style=&quot;color: light-dark(rgb(235, 235, 235), rgb(237, 237, 237));&quot;&gt;&lt;font&gt;Organizer of meeting&amp;nbsp;&lt;/font&gt;&lt;/span&gt;&lt;div&gt;&lt;span style=&quot;color: light-dark(rgb(235, 235, 235), rgb(237, 237, 237));&quot;&gt;&lt;font&gt;groups, meetings member&lt;/font&gt;&lt;/span&gt;&lt;/div&gt;&lt;div&gt;&lt;span style=&quot;color: light-dark(rgb(235, 235, 235), rgb(237, 237, 237));&quot;&gt;&lt;font&gt;&amp;nbsp;of groups, meeting attendee&lt;/font&gt;&lt;/span&gt;&lt;/div&gt;" style="text;html=1;align=center;verticalAlign=middle;resizable=0;points=[];autosize=1;strokeColor=none;fillColor=none;" vertex="1" parent="1">
          <mxGeometry x="319.99" y="-487" width="171" height="54" as="geometry" />
        </mxCell>
        <mxCell id="lagsqbO43xkKmdAP9FLH-8" value="&lt;font style=&quot;font-size: 14px;&quot;&gt;&lt;b style=&quot;color: light-dark(rgb(255, 255, 255), rgb(237, 237, 237));&quot;&gt;My Meetings&lt;/b&gt;&lt;/font&gt;" style="rounded=0;whiteSpace=wrap;html=1;strokeColor=light-dark(#0096ff, #ededed);fillColor=light-dark(#0096ff, #ededed);" vertex="1" parent="1">
          <mxGeometry x="345.99" y="-338" width="120" height="31" as="geometry" />
        </mxCell>
        <mxCell id="lagsqbO43xkKmdAP9FLH-10" value="&lt;font style=&quot;font-size: 14px;&quot;&gt;&lt;b style=&quot;color: light-dark(rgb(255, 255, 255), rgb(237, 237, 237));&quot;&gt;Payment Gateway&lt;/b&gt;&lt;/font&gt;" style="rounded=0;whiteSpace=wrap;html=1;strokeColor=light-dark(#929292, #ededed);fillColor=light-dark(#929292, #ededed);" vertex="1" parent="1">
          <mxGeometry x="123.00000000000003" y="-203" width="151.01" height="31" as="geometry" />
        </mxCell>
        <mxCell id="lagsqbO43xkKmdAP9FLH-11" value="&lt;font style=&quot;font-size: 14px;&quot;&gt;&lt;b style=&quot;color: light-dark(rgb(255, 255, 255), rgb(237, 237, 237));&quot;&gt;Email Service&lt;/b&gt;&lt;/font&gt;" style="rounded=0;whiteSpace=wrap;html=1;strokeColor=light-dark(#929292, #ededed);fillColor=light-dark(#929292, #ededed);" vertex="1" parent="1">
          <mxGeometry x="666" y="-203" width="151.01" height="31" as="geometry" />
        </mxCell>
        <mxCell id="lagsqbO43xkKmdAP9FLH-12" value="" style="endArrow=classic;html=1;rounded=0;exitX=0.5;exitY=1;exitDx=0;exitDy=0;entryX=0.5;entryY=0;entryDx=0;entryDy=0;" edge="1" parent="1" source="lagsqbO43xkKmdAP9FLH-4" target="lagsqbO43xkKmdAP9FLH-8">
          <mxGeometry width="50" height="50" relative="1" as="geometry">
            <mxPoint x="378" y="-289" as="sourcePoint" />
            <mxPoint x="428" y="-339" as="targetPoint" />
          </mxGeometry>
        </mxCell>
        <mxCell id="lagsqbO43xkKmdAP9FLH-13" value="" style="endArrow=classic;html=1;rounded=0;exitX=0;exitY=1;exitDx=0;exitDy=0;entryX=0.5;entryY=0;entryDx=0;entryDy=0;edgeStyle=orthogonalEdgeStyle;curved=1;" edge="1" parent="1" source="lagsqbO43xkKmdAP9FLH-4" target="lagsqbO43xkKmdAP9FLH-10">
          <mxGeometry width="50" height="50" relative="1" as="geometry">
            <mxPoint x="378" y="-289" as="sourcePoint" />
            <mxPoint x="428" y="-339" as="targetPoint" />
            <Array as="points">
              <mxPoint x="199" y="-432" />
            </Array>
          </mxGeometry>
        </mxCell>
        <mxCell id="lagsqbO43xkKmdAP9FLH-14" value="" style="endArrow=classic;html=1;rounded=0;exitX=0.569;exitY=0;exitDx=0;exitDy=0;entryX=0;entryY=0.5;entryDx=0;entryDy=0;edgeStyle=orthogonalEdgeStyle;curved=1;exitPerimeter=0;" edge="1" parent="1" source="lagsqbO43xkKmdAP9FLH-10" target="lagsqbO43xkKmdAP9FLH-8">
          <mxGeometry width="50" height="50" relative="1" as="geometry">
            <mxPoint x="378" y="-289" as="sourcePoint" />
            <mxPoint x="428" y="-339" as="targetPoint" />
            <Array as="points">
              <mxPoint x="209" y="-322" />
            </Array>
          </mxGeometry>
        </mxCell>
        <mxCell id="lagsqbO43xkKmdAP9FLH-15" value="" style="endArrow=classic;html=1;rounded=0;exitX=0.25;exitY=1;exitDx=0;exitDy=0;entryX=0.75;entryY=0;entryDx=0;entryDy=0;edgeStyle=orthogonalEdgeStyle;curved=1;" edge="1" parent="1" source="lagsqbO43xkKmdAP9FLH-8" target="lagsqbO43xkKmdAP9FLH-10">
          <mxGeometry width="50" height="50" relative="1" as="geometry">
            <mxPoint x="219" y="-217" as="sourcePoint" />
            <mxPoint x="356" y="-312" as="targetPoint" />
            <Array as="points">
              <mxPoint x="346" y="-307" />
              <mxPoint x="346" y="-243" />
              <mxPoint x="236" y="-243" />
            </Array>
          </mxGeometry>
        </mxCell>
        <mxCell id="lagsqbO43xkKmdAP9FLH-16" value="" style="rounded=0;whiteSpace=wrap;html=1;strokeColor=light-dark(#005493, #ededed);fillColor=light-dark(#005493, #ededed);" vertex="1" parent="1">
          <mxGeometry x="408" y="-62" width="210" height="134" as="geometry" />
        </mxCell>
        <mxCell id="lagsqbO43xkKmdAP9FLH-17" value="" style="shape=actor;whiteSpace=wrap;html=1;strokeColor=light-dark(#ffffff, #ededed);fillColor=default;fontColor=#333333;gradientColor=none;recursiveResize=1;expand=1;" vertex="1" parent="1">
          <mxGeometry x="489.27000000000004" y="-51" width="45.45" height="51" as="geometry" />
        </mxCell>
        <mxCell id="lagsqbO43xkKmdAP9FLH-18" value="&lt;font style=&quot;font-size: 14px; color: light-dark(rgb(255, 255, 255), rgb(237, 237, 237));&quot;&gt;&lt;b&gt;Administrator&lt;/b&gt;&lt;/font&gt;" style="text;html=1;align=center;verticalAlign=middle;resizable=0;points=[];autosize=1;strokeColor=none;fillColor=none;" vertex="1" parent="1">
          <mxGeometry x="456.99" width="110" height="28" as="geometry" />
        </mxCell>
        <mxCell id="lagsqbO43xkKmdAP9FLH-19" value="&lt;font style=&quot;font-size: 14px; color: rgb(255, 255, 255);&quot;&gt;Administrator of the system&lt;/font&gt;" style="text;html=1;align=center;verticalAlign=middle;resizable=0;points=[];autosize=1;strokeColor=none;fillColor=none;" vertex="1" parent="1">
          <mxGeometry x="417.99" y="39" width="188" height="28" as="geometry" />
        </mxCell>
        <mxCell id="lagsqbO43xkKmdAP9FLH-20" value="" style="endArrow=classic;html=1;rounded=0;exitX=0.5;exitY=0;exitDx=0;exitDy=0;entryX=0.75;entryY=1;entryDx=0;entryDy=0;edgeStyle=orthogonalEdgeStyle;curved=1;" edge="1" parent="1" source="lagsqbO43xkKmdAP9FLH-16" target="lagsqbO43xkKmdAP9FLH-8">
          <mxGeometry width="50" height="50" relative="1" as="geometry">
            <mxPoint x="379" y="-11" as="sourcePoint" />
            <mxPoint x="429" y="-61" as="targetPoint" />
            <Array as="points">
              <mxPoint x="513" y="-184" />
              <mxPoint x="436" y="-184" />
            </Array>
          </mxGeometry>
        </mxCell>
        <mxCell id="lagsqbO43xkKmdAP9FLH-21" value="" style="endArrow=classic;html=1;rounded=0;entryX=0;entryY=0.5;entryDx=0;entryDy=0;edgeStyle=orthogonalEdgeStyle;curved=1;exitX=1;exitY=0.75;exitDx=0;exitDy=0;" edge="1" parent="1" source="lagsqbO43xkKmdAP9FLH-8" target="lagsqbO43xkKmdAP9FLH-11">
          <mxGeometry width="50" height="50" relative="1" as="geometry">
            <mxPoint x="471" y="-296" as="sourcePoint" />
            <mxPoint x="429" y="-61" as="targetPoint" />
          </mxGeometry>
        </mxCell>
        <mxCell id="lagsqbO43xkKmdAP9FLH-22" value="" style="endArrow=classic;html=1;rounded=0;exitX=0.25;exitY=0;exitDx=0;exitDy=0;entryX=1;entryY=1;entryDx=0;entryDy=0;edgeStyle=orthogonalEdgeStyle;curved=1;" edge="1" parent="1" source="lagsqbO43xkKmdAP9FLH-11" target="lagsqbO43xkKmdAP9FLH-4">
          <mxGeometry width="50" height="50" relative="1" as="geometry">
            <mxPoint x="379" y="-124" as="sourcePoint" />
            <mxPoint x="429" y="-174" as="targetPoint" />
            <Array as="points">
              <mxPoint x="704" y="-432" />
            </Array>
          </mxGeometry>
        </mxCell>
        <mxCell id="lagsqbO43xkKmdAP9FLH-23" value="" style="endArrow=classic;html=1;rounded=0;exitX=0.25;exitY=1;exitDx=0;exitDy=0;entryX=0.75;entryY=0;entryDx=0;entryDy=0;" edge="1" parent="1" source="lagsqbO43xkKmdAP9FLH-11" target="lagsqbO43xkKmdAP9FLH-16">
          <mxGeometry width="50" height="50" relative="1" as="geometry">
            <mxPoint x="379" y="-124" as="sourcePoint" />
            <mxPoint x="429" y="-174" as="targetPoint" />
          </mxGeometry>
        </mxCell>
        <mxCell id="lagsqbO43xkKmdAP9FLH-25" value="&lt;b style=&quot;color: light-dark(rgb(96, 96, 96), rgb(237, 237, 237));&quot;&gt;Organize meeting&amp;nbsp;&lt;/b&gt;&lt;div&gt;&lt;b style=&quot;color: light-dark(rgb(96, 96, 96), rgb(237, 237, 237));&quot;&gt;groups and&amp;nbsp;&lt;/b&gt;&lt;/div&gt;&lt;div&gt;&lt;b style=&quot;color: light-dark(rgb(96, 96, 96), rgb(237, 237, 237));&quot;&gt;participate in&amp;nbsp;&lt;/b&gt;&lt;/div&gt;&lt;div&gt;&lt;b style=&quot;color: light-dark(rgb(96, 96, 96), rgb(237, 237, 237));&quot;&gt;meetings&lt;/b&gt;&lt;/div&gt;" style="text;html=1;align=center;verticalAlign=middle;resizable=0;points=[];autosize=1;strokeColor=none;fillColor=none;" vertex="1" parent="1">
          <mxGeometry x="408" y="-419" width="122" height="68" as="geometry" />
        </mxCell>
        <mxCell id="lagsqbO43xkKmdAP9FLH-26" value="&lt;font color=&quot;#606060&quot;&gt;&lt;span style=&quot;caret-color: rgb(96, 96, 96);&quot;&gt;&lt;b&gt;send email&lt;/b&gt;&lt;/span&gt;&lt;/font&gt;" style="text;html=1;align=center;verticalAlign=middle;resizable=0;points=[];autosize=1;strokeColor=none;fillColor=none;" vertex="1" parent="1">
          <mxGeometry x="687" y="-351" width="80" height="26" as="geometry" />
        </mxCell>
        <mxCell id="lagsqbO43xkKmdAP9FLH-27" value="&lt;font color=&quot;#606060&quot;&gt;&lt;span style=&quot;caret-color: rgb(96, 96, 96);&quot;&gt;&lt;b&gt;Request email send&lt;/b&gt;&lt;/span&gt;&lt;/font&gt;" style="text;html=1;align=center;verticalAlign=middle;resizable=0;points=[];autosize=1;strokeColor=none;fillColor=none;" vertex="1" parent="1">
          <mxGeometry x="566.99" y="-277" width="131" height="26" as="geometry" />
        </mxCell>
        <mxCell id="lagsqbO43xkKmdAP9FLH-28" value="&lt;font color=&quot;#606060&quot;&gt;&lt;span style=&quot;caret-color: rgb(96, 96, 96);&quot;&gt;&lt;b&gt;Manage members,&lt;/b&gt;&lt;/span&gt;&lt;/font&gt;&lt;div&gt;&lt;font color=&quot;#606060&quot;&gt;&lt;span style=&quot;caret-color: rgb(96, 96, 96);&quot;&gt;&lt;b&gt;meeting groups,&lt;/b&gt;&lt;/span&gt;&lt;/font&gt;&lt;/div&gt;&lt;div&gt;&lt;font color=&quot;#606060&quot;&gt;&lt;span style=&quot;caret-color: rgb(96, 96, 96);&quot;&gt;&lt;b&gt;meetings&lt;/b&gt;&lt;/span&gt;&lt;/font&gt;&lt;/div&gt;" style="text;html=1;align=center;verticalAlign=middle;resizable=0;points=[];autosize=1;strokeColor=none;fillColor=none;" vertex="1" parent="1">
          <mxGeometry x="505" y="-183" width="123" height="54" as="geometry" />
        </mxCell>
        <mxCell id="lagsqbO43xkKmdAP9FLH-29" value="&lt;font color=&quot;#606060&quot;&gt;&lt;span style=&quot;caret-color: rgb(96, 96, 96);&quot;&gt;&lt;b&gt;send email&lt;/b&gt;&lt;/span&gt;&lt;/font&gt;" style="text;html=1;align=center;verticalAlign=middle;resizable=0;points=[];autosize=1;strokeColor=none;fillColor=none;" vertex="1" parent="1">
          <mxGeometry x="666" y="-129" width="80" height="26" as="geometry" />
        </mxCell>
        <mxCell id="lagsqbO43xkKmdAP9FLH-30" value="&lt;font color=&quot;#606060&quot;&gt;&lt;span style=&quot;caret-color: rgb(96, 96, 96);&quot;&gt;&lt;b&gt;Delegate the&lt;/b&gt;&lt;/span&gt;&lt;/font&gt;&lt;div&gt;&lt;font color=&quot;#606060&quot;&gt;&lt;span style=&quot;caret-color: rgb(96, 96, 96);&quot;&gt;&lt;b&gt;payment&lt;/b&gt;&lt;/span&gt;&lt;/font&gt;&lt;/div&gt;" style="text;html=1;align=center;verticalAlign=middle;resizable=0;points=[];autosize=1;strokeColor=none;fillColor=none;" vertex="1" parent="1">
          <mxGeometry x="345.99" y="-277" width="89" height="40" as="geometry" />
        </mxCell>
        <mxCell id="lagsqbO43xkKmdAP9FLH-31" value="&lt;font color=&quot;#606060&quot;&gt;&lt;span style=&quot;caret-color: rgb(96, 96, 96);&quot;&gt;&lt;b&gt;Return info about&lt;/b&gt;&lt;/span&gt;&lt;/font&gt;&lt;div&gt;&lt;font color=&quot;#606060&quot;&gt;&lt;span style=&quot;caret-color: rgb(96, 96, 96);&quot;&gt;&lt;b&gt;payment&lt;/b&gt;&lt;/span&gt;&lt;/font&gt;&lt;/div&gt;" style="text;html=1;align=center;verticalAlign=middle;resizable=0;points=[];autosize=1;strokeColor=none;fillColor=none;" vertex="1" parent="1">
          <mxGeometry x="222" y="-284" width="118" height="40" as="geometry" />
        </mxCell>
        <mxCell id="lagsqbO43xkKmdAP9FLH-32" value="&lt;font color=&quot;#606060&quot;&gt;&lt;span style=&quot;caret-color: rgb(96, 96, 96);&quot;&gt;&lt;b&gt;Pay in&lt;/b&gt;&lt;/span&gt;&lt;/font&gt;" style="text;html=1;align=center;verticalAlign=middle;resizable=0;points=[];autosize=1;strokeColor=none;fillColor=none;" vertex="1" parent="1">
          <mxGeometry x="214" y="-338" width="53" height="26" as="geometry" />
        </mxCell>
        <mxCell id="lagsqbO43xkKmdAP9FLH-33" value="&lt;b&gt;Legend&lt;/b&gt;" style="rounded=0;whiteSpace=wrap;html=1;align=left;strokeColor=light-dark(#ffffff, #ededed);" vertex="1" parent="1">
          <mxGeometry x="654" y="119" width="120" height="22" as="geometry" />
        </mxCell>
        <mxCell id="lagsqbO43xkKmdAP9FLH-34" value="&lt;span style=&quot;color: light-dark(rgb(255, 255, 255), rgb(237, 237, 237));&quot;&gt;person&lt;/span&gt;" style="rounded=0;whiteSpace=wrap;html=1;align=left;strokeColor=light-dark(#ffffff, #ededed);fillColor=light-dark(#005493, #ededed);" vertex="1" parent="1">
          <mxGeometry x="654" y="143" width="120" height="22" as="geometry" />
        </mxCell>
        <mxCell id="lagsqbO43xkKmdAP9FLH-35" value="&lt;span style=&quot;color: light-dark(rgb(255, 255, 255), rgb(237, 237, 237));&quot;&gt;system&lt;/span&gt;" style="rounded=0;whiteSpace=wrap;html=1;align=left;strokeColor=light-dark(#ffffff, #ededed);fillColor=light-dark(#0096ff, #ededed);" vertex="1" parent="1">
          <mxGeometry x="654" y="167" width="120" height="22" as="geometry" />
        </mxCell>
        <mxCell id="lagsqbO43xkKmdAP9FLH-36" value="&lt;span style=&quot;color: light-dark(rgb(255, 255, 255), rgb(237, 237, 237));&quot;&gt;external person&lt;/span&gt;" style="rounded=0;whiteSpace=wrap;html=1;align=left;strokeColor=light-dark(#ffffff, #ededed);fillColor=light-dark(#929292, #ededed);" vertex="1" parent="1">
          <mxGeometry x="654" y="191" width="120" height="22" as="geometry" />
        </mxCell>
        <mxCell id="lagsqbO43xkKmdAP9FLH-37" value="&lt;span style=&quot;color: light-dark(rgb(255, 255, 255), rgb(237, 237, 237));&quot;&gt;external system&lt;/span&gt;" style="rounded=0;whiteSpace=wrap;html=1;align=left;strokeColor=light-dark(#ffffff, #ededed);fillColor=light-dark(#c0c0c0, #ededed);" vertex="1" parent="1">
          <mxGeometry x="654" y="215" width="120" height="22" as="geometry" />
        </mxCell>
      </root>
    </mxGraphModel>
  </diagram>
</mxfile>
